<?xml version="1.0" encoding="UTF-8"?>
<svg version="1.1" xmlns="http://www.w3.org/2000/svg" width="1104" height="1073">
<path d="M0 0 C12.63491684 8.25415426 24.84141595 17.14430963 37.05639648 26.00219727 C43.50023233 30.6637985 50.01356217 35.22172468 56.53833008 39.76904297 C62.81149404 44.14854751 69.02040505 48.61022346 75.2109375 53.10546875 C80.76602342 57.1304696 86.37200988 61.07772381 92 65 C99.12329672 69.96438987 106.18540362 75.0038885 113.2109375 80.10546875 C118.76602342 84.1304696 124.37200988 88.07772381 130 92 C137.12329672 96.96438987 144.18540362 102.0038885 151.2109375 107.10546875 C156.76602342 111.1304696 162.37200988 115.07772381 168 119 C175.12329672 123.96438987 182.18540362 129.0038885 189.2109375 134.10546875 C194.76602342 138.1304696 200.37200988 142.07772381 206 146 C213.12329672 150.96438987 220.18540362 156.0038885 227.2109375 161.10546875 C232.76602342 165.1304696 238.37200988 169.07772381 244 173 C251.12329672 177.96438987 258.18540362 183.0038885 265.2109375 188.10546875 C270.7660241 192.1304701 276.3720325 196.07769044 282 200 C289.19129167 205.01234347 296.32378035 210.09756645 303.41967773 215.24389648 C311.2283537 220.90249465 319.11114265 226.45400516 327 232 C335.64119356 238.07489942 344.26160099 244.17342378 352.8125 250.375 C359.99938158 255.58683683 367.25502775 260.69307791 374.53833008 265.76904297 C380.81149404 270.14854751 387.02040505 274.61022346 393.2109375 279.10546875 C398.76602342 283.1304696 404.37200988 287.07772381 410 291 C417.12329672 295.96438987 424.18540362 301.0038885 431.2109375 306.10546875 C436.76602342 310.1304696 442.37200988 314.07772381 448 318 C454.3756857 322.4433625 460.71120619 326.9344873 467 331.5 C473.57801261 336.26628121 480.17788243 341.00026107 486.8125 345.6875 C487.65490234 346.28820312 488.49730469 346.88890625 489.36523438 347.5078125 C490.15865234 348.06597656 490.95207031 348.62414062 491.76953125 349.19921875 C492.46667236 349.69252686 493.16381348 350.18583496 493.88208008 350.6940918 C496.20501307 352.12641094 498.40038988 353.16653518 501 354 C503.45506505 353.04496342 503.45506505 353.04496342 505.875 351.125 C506.92816406 350.37476563 507.98132813 349.62453125 509.06640625 348.8515625 C509.98123779 348.18495605 509.98123779 348.18495605 510.91455078 347.50488281 C514.20713806 345.12891606 517.5538133 342.83178411 520.89282227 340.52172852 C523.87832422 338.45442007 526.85792378 336.37886022 529.8359375 334.30078125 C535.86703768 330.09239233 541.90111144 325.88829983 547.9375 321.6875 C549.38636597 320.67913086 549.38636597 320.67913086 550.86450195 319.65039062 C556.85076351 315.48692649 562.85085219 311.34449366 568.86499023 307.22143555 C574.76186862 303.17423414 580.63112144 299.0876625 586.5 295 C593.60545183 290.05106662 600.72131678 285.11871995 607.86328125 280.22265625 C613.76066835 276.17495879 619.63054665 272.08806284 625.5 268 C632.60545183 263.05106662 639.72131678 258.11871995 646.86328125 253.22265625 C652.76066835 249.17495879 658.63054665 245.08806284 664.5 241 C671.60545183 236.05106662 678.72131678 231.11871995 685.86328125 226.22265625 C691.76066835 222.17495879 697.63054665 218.08806284 703.5 214 C709.9874463 209.48150628 716.47927557 204.97035396 723 200.5 C733.37108757 193.38781948 743.68107039 186.18753007 754 179 C776.5564294 163.28858218 776.5564294 163.28858218 786.86499023 156.22143555 C792.76186862 152.17423414 798.63112144 148.0876625 804.5 144 C811.60545183 139.05106662 818.72131678 134.11871995 825.86328125 129.22265625 C831.76066835 125.17495879 837.63054665 121.08806284 843.5 117 C850.60545183 112.05106662 857.72131678 107.11871995 864.86328125 102.22265625 C870.76066835 98.17495879 876.63054665 94.08806284 882.5 90 C889.60545183 85.05106662 896.72131678 80.11871995 903.86328125 75.22265625 C909.76066835 71.17495879 915.63054665 67.08806284 921.5 63 C928.60545183 58.05106662 935.72131678 53.11871995 942.86328125 48.22265625 C948.76067024 44.1749575 954.63037406 40.08781775 960.5 36 C964.33283268 33.33261312 968.16624863 30.66606627 972 28 C972.83321777 27.42024414 973.66643555 26.84048828 974.52490234 26.24316406 C976.7437946 24.7009032 978.96514632 23.16226721 981.1875 21.625 C981.82816406 21.17898437 982.46882813 20.73296875 983.12890625 20.2734375 C986.00899113 18.2863047 988.85158898 16.51998122 992 15 C992.60162608 121.21200523 993.09947704 227.42372703 993.51765925 404.8209101 C993.55033881 420.11480906 993.58409678 435.40870526 993.61855791 450.70260032 C993.86083791 558.33250443 994.05624171 665.96226671 994 950 C926.2518318 950.09320961 926.2518318 950.09320961 895.62097168 949.59472656 C892.76049844 949.5499442 889.89994804 949.51174231 887.03938389 949.47328281 C884.18136601 949.43408794 881.32341382 949.39113779 878.46546745 949.34705925 C876.54931782 949.3180405 874.63312642 949.29181796 872.7169342 949.26576233 C866.31474426 949.15726085 859.94131323 948.90482092 853.55308533 948.48716736 C852.82222198 948.4403984 852.09135863 948.39362945 851.33834791 948.34544325 C849.55882681 948.23141048 847.77940275 948.11586492 846 948 C845.61173407 909.82691717 845.22490551 871.6538199 844.8389892 833.48071325 C844.75500835 825.1740083 844.67098534 816.86730378 844.58686066 808.56060028 C844.34484697 784.66280427 844.10345219 760.7650021 843.86328125 736.8671875 C843.85448385 735.99182986 843.84568646 735.11647221 843.83662248 734.21458858 C843.28888161 679.7019032 842.7589894 625.18906551 842.24451163 570.67605631 C842.15998267 561.7208818 842.07514572 552.76571022 841.99030299 543.81053868 C841.91510181 535.87173994 841.83999087 527.93294034 841.76489258 519.99414062 C841.75670828 519.1290659 841.74852398 518.26399117 841.74009167 517.37270206 C841.54584992 496.8391666 841.3530354 476.30561902 841.16340873 455.77204038 C841.03635324 442.0157678 840.90753495 428.25951261 840.77706975 414.50327194 C840.70664532 407.07093048 840.63705666 399.6385836 840.56998253 392.20621109 C840.25001982 356.79921782 839.7641274 321.40043303 839 286 C837.97678146 286.75178024 836.95356293 287.50356049 835.89933777 288.27812195 C834.53992256 289.27617501 833.18049074 290.27420543 831.82104492 291.2722168 C830.81246052 292.01338367 830.81246052 292.01338367 829.78350067 292.76952362 C824.67376342 296.51971709 819.51865414 300.19719279 814.3125 303.8125 C812.60414166 305.00387039 810.89580909 306.19527774 809.1875 307.38671875 C808.3315625 307.98274902 807.475625 308.5787793 806.59375 309.19287109 C802.32908109 312.16416997 798.07065368 315.14437482 793.8125 318.125 C792.98234375 318.70596436 792.1521875 319.28692871 791.296875 319.88549805 C783.18176987 325.56750709 775.08887897 331.2807453 767 337 C757.16665814 343.95267995 747.31787176 350.88239169 737.44873047 357.78417969 C729.28153281 363.49790894 721.13857528 369.24560744 713 375 C703.16665814 381.95267995 693.31787176 388.88239169 683.44873047 395.78417969 C675.28153281 401.49790894 667.13857528 407.24560744 659 413 C649.16665814 419.95267995 639.31787176 426.88239169 629.44873047 433.78417969 C621.28153281 439.49790894 613.13857528 445.24560744 605 451 C595.16665814 457.95267995 585.31787176 464.88239169 575.44873047 471.78417969 C567.28153281 477.49790894 559.13857528 483.24560744 551 489 C543.7021072 494.15998668 536.40412972 499.31970048 529.08203125 504.4453125 C528.24591309 505.03070801 527.40979492 505.61610352 526.54833984 506.21923828 C524.85897355 507.39975541 523.16790863 508.5778457 521.47509766 509.75341797 C517.31150167 512.65036075 513.18956234 515.58505977 509.12890625 518.625 C508.35869141 519.19347656 507.58847656 519.76195312 506.79492188 520.34765625 C505.34098678 521.42379718 503.89757032 522.51434449 502.46679688 523.62109375 C497.71707307 527.10895064 497.71707307 527.10895064 494.48046875 526.6171875 C493.66191406 526.08351563 492.84335937 525.54984375 492 525 C491.20348022 524.49388184 491.20348022 524.49388184 490.39086914 523.97753906 C488.47861944 522.73537604 486.61449184 521.43770304 484.75 520.125 C484.05036133 519.63813721 483.35072266 519.15127441 482.62988281 518.6496582 C480.41560722 517.10582975 478.20701465 515.55418753 476 514 C475.31292969 513.5167627 474.62585938 513.03352539 473.91796875 512.53564453 C470.43251775 510.08233354 466.95153623 507.62277397 463.47265625 505.16015625 C458.72183232 501.79950913 453.95593744 498.46059143 449.1875 495.125 C448.3512207 494.54000732 447.51494141 493.95501465 446.65332031 493.35229492 C444.95172045 492.16218593 443.25006007 490.97216345 441.54833984 489.78222656 C436.53339256 486.27493444 431.52055142 482.76463287 426.50732422 479.25488281 C422.30376353 476.3121436 418.09967859 473.37015906 413.89453125 470.4296875 C405.39189535 464.48305871 396.89909294 458.52321098 388.42626953 452.53417969 C380.48520192 446.92414591 372.51634681 441.35389765 364.54833984 435.78222656 C359.53339256 432.27493444 354.52055142 428.76463287 349.50732422 425.25488281 C345.30376353 422.3121436 341.09967859 419.37015906 336.89453125 416.4296875 C328.39189535 410.48305871 319.89909294 404.52321098 311.42626953 398.53417969 C303.48520192 392.92414591 295.51634681 387.35389765 287.54833984 381.78222656 C282.53339256 378.27493444 277.52055142 374.76463287 272.50732422 371.25488281 C268.30376353 368.3121436 264.09967859 365.37015906 259.89453125 362.4296875 C251.39189535 356.48305871 242.89909294 350.52321098 234.42626953 344.53417969 C226.48520192 338.92414591 218.51634681 333.35389765 210.54833984 327.78222656 C206.3645694 324.85623267 202.18235476 321.9280169 198 319 C196.33334098 317.83332241 194.66667431 316.66665575 193 315.5 C178 305 163 294.5 148 284 C147.96037581 312.73584084 148.05691238 341.47088149 148.16866392 370.20647132 C148.23422666 387.0654516 148.29507878 403.92444865 148.35571289 420.78344727 C148.35864273 421.59720667 148.36157257 422.41096607 148.3645912 423.24938485 C148.68670252 512.73018971 149.00430584 602.21106447 149.06315851 808.44137043 C149.06249782 811.07119031 149.06185521 813.70101021 149.06121445 816.3308301 C149.0503978 860.22055906 149.03066692 904.1102803 149 948 C138.28242388 948.04518495 127.59183875 948.01822497 116.88183594 947.55688477 C115.12891235 947.48614243 115.12891235 947.48614243 113.34057617 947.41397095 C109.55501009 947.26022301 105.76970041 947.10096048 101.984375 946.94140625 C99.31220609 946.83141524 96.64002727 946.72169534 93.96783447 946.61228943 C88.40064444 946.38374566 82.83358455 946.15223122 77.26660156 945.91870117 C70.87338516 945.65053297 64.4800112 945.38642972 58.08653045 945.12464482 C51.87411924 944.87023769 45.66180167 944.61361555 39.44953156 944.35578728 C36.83274442 944.24730476 34.21593869 944.13926949 31.59911346 944.03170967 C27.93285429 943.88056956 24.2667101 943.72688594 20.60058594 943.57250977 C19.54357483 943.52935135 18.48656372 943.48619293 17.39752197 943.44172668 C11.62788575 943.1959023 5.86726998 942.8727657 0.10577774 942.48062038 C-0.92467991 942.41117586 -0.92467991 942.41117586 -1.97595489 942.34032843 C-3.65067093 942.22739364 -5.32534043 942.113769 -7 942 C-7.1192424 900.65740027 -6.80799186 859.31734117 -6.5283833 817.97599063 C-6.45590158 807.24984964 -6.38527663 796.52369659 -6.31464951 785.79754325 C-6.14422226 759.92830416 -5.9706506 734.05908646 -5.79670162 708.18987085 C-5.71436425 695.94138074 -5.63243348 683.69288793 -5.55055073 671.44439478 C-5.26986785 629.45923264 -4.98854058 587.4740749 -4.7049036 545.48893261 C-4.68717216 542.86401376 -4.66944074 540.23909491 -4.65170934 537.61417605 C-4.63393746 534.98335416 -4.61616552 532.35253227 -4.5983935 529.72171038 C-4.56274618 524.44476331 -4.52710019 519.16781623 -4.49145508 513.89086914 C-4.48261678 512.5825366 -4.47377848 511.27420407 -4.46467236 509.92622509 C-4.17732367 467.38614662 -3.89382656 424.84604369 -3.61260913 382.30592427 C-3.31471432 337.24510688 -3.01345158 292.18431327 -2.70828623 247.12354451 C-2.67483489 242.18227574 -2.64139714 237.24100687 -2.60796928 232.29973793 C-2.5997378 231.0832095 -2.59150632 229.86668107 -2.58302541 228.61328815 C-2.45064007 209.03650584 -2.32131776 189.45970445 -2.19308797 169.88289453 C-2.06435434 150.24111499 -1.93217832 130.59936097 -1.79648263 110.95762827 C-1.71596569 99.28847131 -1.63804524 87.61930373 -1.56382602 75.95010497 C-1.51402671 68.16064022 -1.46085281 60.37120327 -1.40491451 52.5817802 C-1.37312609 48.14184765 -1.34281766 43.70191851 -1.31661213 39.2619492 C-1.29273852 35.22207257 -1.26456219 31.18224952 -1.23297637 27.14242604 C-1.22238043 25.69135034 -1.21334087 24.24026222 -1.20606479 22.78916607 C-1.16679154 15.13441289 -0.96479601 7.59914679 0 0 Z " fill="#004A82" transform="translate(59,53)"/>
<path d="M0 0 C6.09160142 3.99979474 12.02795753 8.150955 17.875 12.5 C19.54815876 13.73830601 21.22133638 14.97658653 22.89453125 16.21484375 C23.74096191 16.84245605 24.58739258 17.47006836 25.45947266 18.11669922 C29.48964939 21.1042817 33.52510505 24.08468155 37.5625 27.0625 C38.34802246 27.64193359 39.13354492 28.22136719 39.94287109 28.81835938 C45.27281063 32.74372114 50.62838187 36.63191811 56 40.5 C66.19341866 47.84024221 76.29401291 55.30454358 86.39550781 62.77050781 C94.90093776 69.05501766 103.41810407 75.32017101 112 81.5 C118.31708768 86.04916553 124.60779612 90.63232418 130.875 95.25 C131.61105469 95.79205078 132.34710938 96.33410156 133.10546875 96.89257812 C134.55309319 97.96094039 135.98590234 99.0497233 137.40177536 100.15982151 C139.97875232 102.09533433 139.97875232 102.09533433 143.03563309 103.45015621 C147.53888557 105.92094471 151.152479 108.16548208 152.68449688 113.28928685 C153.82248603 120.61515261 153.50082447 128.04190064 153.36230469 135.42993164 C153.35862689 137.98416392 153.36023362 140.53840839 153.36668777 143.09263515 C153.36911943 149.23202482 153.3178252 155.3688597 153.24067183 161.50769758 C153.15405759 168.61289394 153.14472395 175.71735762 153.13525391 182.82312012 C153.0723238 201.5699143 152.9047891 220.31623924 152.75 239.0625 C152.5025 280.951875 152.255 322.84125 152 366 C243.08 366 334.16 366 428 366 C428 424.27896683 428 424.27896683 427.59472656 449.7286377 C427.55094248 452.55984276 427.5121558 455.39110897 427.47316933 458.2223835 C427.21437276 476.82564914 426.72148459 495.40838752 426 514 C351.75129141 514.13945409 277.50548437 513.97717969 203.25758117 513.61044246 C196.84701015 513.57878866 190.43643641 513.54784354 184.0258581 513.51770228 C179.84616012 513.49800285 175.6664639 513.4779457 171.48676789 513.45783341 C169.59858961 513.44880729 167.71041076 513.43989933 165.82223117 513.43115222 C159.25133351 513.40061259 152.68046452 513.36590615 146.109602 513.32856162 C144.59038928 513.3199358 143.07117618 513.31137545 141.55196282 513.30286042 C109.76981747 513.12416986 77.98935202 512.85123416 46.20850563 512.5147121 C40.62063965 512.45576185 35.03276187 512.39795041 29.44488525 512.34001923 C18.62991224 512.22774128 7.81495193 512.11429003 -3 512 C-2.82632579 464.2820022 -2.65150047 416.56400877 -2.47032166 368.84603882 C-2.46764024 368.13973114 -2.46495882 367.43342347 -2.46219615 366.70571253 C-2.40391373 351.3555254 -2.34541742 336.00533909 -2.28670079 320.65515361 C-2.25790722 313.12736167 -2.22916092 305.59956956 -2.20043945 298.07177734 C-2.19758053 297.3226739 -2.1947216 296.57357046 -2.19177604 295.80176692 C-2.09914207 271.52376567 -2.00962866 247.24575414 -1.92173452 222.96773531 C-1.83139093 198.01768589 -1.7378971 173.06765021 -1.64044279 148.1176275 C-1.62667765 144.59313175 -1.61294849 141.06863585 -1.59924126 137.54413986 C-1.59654238 136.85047255 -1.5938435 136.15680524 -1.59106284 135.44211771 C-1.54772131 124.27866515 -1.50769793 113.11520304 -1.46891735 101.9517338 C-1.42985328 90.72706742 -1.38721119 79.50241886 -1.34116179 68.27777858 C-1.31631862 62.19669507 -1.29304378 56.1156161 -1.2739563 50.03451157 C-1.25644549 44.46666038 -1.23449968 38.8988449 -1.2090345 33.33102457 C-1.20060639 31.31740736 -1.19380235 29.30378255 -1.18879283 27.29015394 C-1.18173776 24.55019575 -1.16873195 21.8103261 -1.15428257 19.07039833 C-1.15370089 18.29128706 -1.15311922 17.51217578 -1.15251991 16.70945507 C-1.11382602 11.09505856 -0.63666744 5.57685762 0 0 Z " fill="#004A82" transform="translate(342,485)"/>
</svg>
